<svg width="24" height="24" viewBox="0 0 24 24" fill="none" xmlns="http://www.w3.org/2000/svg">
<path d="M6.79654 5.14307C7.25836 5.14307 7.68466 5.17859 8.07543 5.28516C8.4662 5.35621 8.78592 5.49831 9.07012 5.67594C9.35431 5.85356 9.56746 6.10223 9.70956 6.42195C9.85166 6.74167 9.92271 7.13244 9.92271 7.55874C9.92271 8.05608 9.81613 8.48238 9.56746 8.8021C9.35431 9.12182 8.99907 9.40602 8.57277 9.61916C9.17669 9.79679 9.63851 10.1165 9.92271 10.5428C10.2069 10.9691 10.3845 11.502 10.3845 12.1059C10.3845 12.6032 10.278 13.0295 10.1003 13.3848C9.92271 13.74 9.63851 14.0597 9.31879 14.2729C8.99907 14.486 8.6083 14.6637 8.182 14.7702C7.75571 14.8768 7.32941 14.9479 6.90312 14.9479H2.14282V5.14307H6.79654ZM6.51235 9.12182C6.90312 9.12182 7.22284 9.01525 7.47151 8.83762C7.72018 8.66 7.82676 8.34028 7.82676 7.94951C7.82676 7.73636 7.79123 7.52321 7.72018 7.38112C7.64913 7.23902 7.54256 7.13244 7.40046 7.02587C7.25836 6.95482 7.11626 6.88377 6.93864 6.84825C6.76102 6.81272 6.58339 6.81272 6.37025 6.81272H4.30982V9.12182H6.51235ZM6.61892 13.3137C6.83207 13.3137 7.04521 13.2782 7.22284 13.2427C7.40046 13.2071 7.57808 13.1361 7.72018 13.0295C7.86228 12.923 7.96885 12.8164 8.07543 12.6388C8.14648 12.4611 8.21753 12.248 8.21753 11.9993C8.21753 11.502 8.07543 11.1467 7.79123 10.898C7.50703 10.6849 7.11626 10.5783 6.65444 10.5783H4.30982V13.3137H6.61892ZM13.4752 13.2782C13.7594 13.5624 14.1857 13.7045 14.754 13.7045C15.1448 13.7045 15.5001 13.5979 15.7843 13.4203C16.0685 13.2071 16.2461 12.994 16.3171 12.7809H18.0578C17.7736 13.6334 17.3473 14.2374 16.779 14.6281C16.2106 14.9834 15.5356 15.1965 14.7185 15.1965C14.1501 15.1965 13.6528 15.0899 13.191 14.9123C12.7291 14.7347 12.3739 14.486 12.0542 14.1308C11.7345 13.8111 11.4858 13.4203 11.3437 12.9585C11.1661 12.4967 11.095 11.9993 11.095 11.4309C11.095 10.898 11.1661 10.4007 11.3437 9.93889C11.5213 9.47707 11.77 9.0863 12.0897 8.73105C12.4094 8.41133 12.8002 8.12713 13.2265 7.94951C13.6883 7.77189 14.1501 7.66531 14.7185 7.66531C15.3224 7.66531 15.8553 7.77189 16.3171 8.02056C16.7789 8.26923 17.1342 8.55343 17.4184 8.97972C17.7026 9.37049 17.9157 9.83231 18.0578 10.3297C18.1289 10.827 18.1644 11.3243 18.1289 11.8927H12.9778C12.9778 12.4611 13.191 12.994 13.4752 13.2782ZM15.7132 9.54811C15.4645 9.29944 15.0738 9.15734 14.6119 9.15734C14.2922 9.15734 14.0436 9.22839 13.8304 9.33497C13.6173 9.44154 13.4752 9.58364 13.3331 9.72574C13.191 9.86784 13.1199 10.0455 13.0844 10.2231C13.0489 10.4007 13.0133 10.5428 13.0133 10.6849H16.2106C16.1395 10.152 15.9619 9.79679 15.7132 9.54811ZM12.587 5.81803H16.5658V6.7772H12.587V5.81803Z" fill="#151515"/>
</svg>
