<svg width="20" height="20" viewBox="0 0 20 20" fill="none" xmlns="http://www.w3.org/2000/svg">
<path d="M8.40008 9.05033C8.44175 8.77533 8.53342 8.53366 8.65008 8.32533C8.76675 8.11699 8.93342 7.94199 9.14175 7.80866C9.34175 7.68366 9.59175 7.62533 9.90008 7.61699C10.0917 7.62533 10.2667 7.65866 10.4251 7.72533C10.5917 7.80033 10.7417 7.90033 10.8584 8.02533C10.9751 8.15033 11.0667 8.30033 11.1417 8.46699C11.2167 8.63366 11.2501 8.81699 11.2584 9.00033H12.7501C12.7334 8.60866 12.6584 8.25033 12.5167 7.92533C12.3751 7.60033 12.1834 7.31699 11.9334 7.08366C11.6834 6.85033 11.3834 6.66699 11.0334 6.53366C10.6834 6.40033 10.3001 6.34199 9.87508 6.34199C9.33342 6.34199 8.85841 6.43366 8.45841 6.62533C8.05841 6.81699 7.72508 7.06699 7.45842 7.39199C7.19175 7.71699 6.99175 8.09199 6.86675 8.52533C6.74175 8.95866 6.66675 9.40866 6.66675 9.89199V10.117C6.66675 10.6003 6.73341 11.0503 6.85841 11.4837C6.98341 11.917 7.18341 12.292 7.45008 12.6087C7.71675 12.9253 8.05008 13.1837 8.45008 13.367C8.85008 13.5503 9.32508 13.6503 9.86675 13.6503C10.2584 13.6503 10.6251 13.5837 10.9667 13.4587C11.3084 13.3337 11.6084 13.1587 11.8667 12.9337C12.1251 12.7087 12.3334 12.4503 12.4834 12.1503C12.6334 11.8503 12.7251 11.5337 12.7334 11.192H11.2417C11.2334 11.367 11.1917 11.5253 11.1167 11.6753C11.0417 11.8253 10.9417 11.9503 10.8167 12.0587C10.6917 12.167 10.5501 12.2503 10.3834 12.3087C10.2251 12.367 10.0584 12.3837 9.88342 12.392C9.58341 12.3837 9.33342 12.3253 9.14175 12.2003C8.93342 12.067 8.76675 11.892 8.65008 11.6837C8.53342 11.4753 8.44175 11.2253 8.40008 10.9503C8.35842 10.6753 8.33342 10.392 8.33342 10.117V9.89199C8.33342 9.60033 8.35842 9.32533 8.40008 9.05033ZM10.0001 1.66699C5.40008 1.66699 1.66675 5.40033 1.66675 10.0003C1.66675 14.6003 5.40008 18.3337 10.0001 18.3337C14.6001 18.3337 18.3334 14.6003 18.3334 10.0003C18.3334 5.40033 14.6001 1.66699 10.0001 1.66699ZM10.0001 16.667C6.32508 16.667 3.33341 13.6753 3.33341 10.0003C3.33341 6.32533 6.32508 3.33366 10.0001 3.33366C13.6751 3.33366 16.6667 6.32533 16.6667 10.0003C16.6667 13.6753 13.6751 16.667 10.0001 16.667Z" fill="#B7B7B7"/>
</svg>
