<svg width="24" height="24" viewBox="0 0 24 24" fill="none" xmlns="http://www.w3.org/2000/svg">
<g clip-path="url(#clip0_228_13562)">
<path opacity="0.3" d="M16.8211 4.71484H3.32202L3.82202 15.5891H16.3211L16.8211 4.71484Z" fill="#151515"/>
<path opacity="0.3" d="M16.8211 4.71484H3.32202L9.54019 9.35493H10.6964L16.8211 4.71484Z" fill="#151515"/>
<path opacity="0.1" d="M8.25 30.5835L19.5 20.4585L30.75 30.5835H8.25Z" fill="#151515"/>
<path fill-rule="evenodd" clip-rule="evenodd" d="M4.44713 5.65228C4.44713 5.13481 4.02791 4.71484 3.5097 4.71484C2.99224 4.71484 2.57227 5.13481 2.57227 5.65228C2.57227 7.64864 2.57227 12.3126 2.57227 14.4642C2.57227 15.0859 3.07623 15.5891 3.69719 15.5891C4.09616 15.5891 4.44713 15.5891 4.44713 15.5891C4.44713 15.5891 4.44713 8.29134 4.44713 5.65228Z" fill="#151515"/>
<path fill-rule="evenodd" clip-rule="evenodd" d="M15.6963 5.65228C15.6963 5.13481 16.1163 4.71484 16.6337 4.71484C16.6345 4.71484 16.6352 4.71484 16.6352 4.71484C17.1527 4.71484 17.5712 5.13406 17.5712 5.65078C17.5712 7.64639 17.5712 12.3118 17.5712 14.4642C17.5712 15.0859 17.0679 15.5891 16.4462 15.5891C16.048 15.5891 15.6963 15.5891 15.6963 15.5891C15.6963 15.5891 15.6963 8.29134 15.6963 5.65228Z" fill="#151515"/>
<path fill-rule="evenodd" clip-rule="evenodd" d="M3.04003 6.46376C2.82479 6.33927 2.66805 6.13528 2.60356 5.8953C2.53906 5.65532 2.57281 5.40034 2.6973 5.1851C2.6973 5.1851 2.69805 5.18435 2.69805 5.1836C2.82254 4.96837 3.02728 4.81163 3.26726 4.74713C3.50725 4.68264 3.76298 4.71638 3.97821 4.84087L10.0715 8.35888L16.1664 4.84012C16.3816 4.71563 16.6366 4.68189 16.8766 4.74638C17.1165 4.81088 17.3205 4.96762 17.445 5.18285L17.4458 5.1836C17.5703 5.39884 17.604 5.65532 17.5395 5.8953C17.475 6.13528 17.3175 6.34002 17.1023 6.46451L11.9464 9.44105L10.0715 10.524L8.19666 9.44105L3.04003 6.46376V6.46376Z" fill="#151515"/>
</g>
<defs>
<clipPath id="clip0_228_13562">
<rect width="24" height="24" fill="white"/>
</clipPath>
</defs>
</svg>
