<svg width="108" height="108" viewBox="0 0 108 108" fill="none" xmlns="http://www.w3.org/2000/svg">
<g opacity="0.7" filter="url(#filter0_d_9_155)">
<circle cx="54" cy="38" r="30" transform="rotate(-90 54 38)" fill="white"/>
</g>
<path d="M53.6199 32.08C53.4972 32.1276 53.385 32.199 53.2899 32.29L48.2899 37.29C48.1967 37.3832 48.1227 37.4939 48.0723 37.6158C48.0218 37.7376 47.9958 37.8681 47.9958 38C47.9958 38.2663 48.1016 38.5217 48.2899 38.71C48.3832 38.8032 48.4939 38.8772 48.6157 38.9277C48.7375 38.9781 48.8681 39.0041 48.9999 39.0041C49.2662 39.0041 49.5216 38.8983 49.7099 38.71L52.9999 35.41V43C52.9999 43.2652 53.1053 43.5196 53.2928 43.7071C53.4804 43.8946 53.7347 44 53.9999 44C54.2652 44 54.5195 43.8946 54.707 43.7071C54.8946 43.5196 54.9999 43.2652 54.9999 43V35.41L58.2899 38.71C58.3829 38.8037 58.4935 38.8781 58.6154 38.9289C58.7372 38.9797 58.8679 39.0058 58.9999 39.0058C59.132 39.0058 59.2627 38.9797 59.3845 38.9289C59.5064 38.8781 59.617 38.8037 59.7099 38.71C59.8037 38.617 59.8781 38.5064 59.9288 38.3846C59.9796 38.2627 60.0057 38.132 60.0057 38C60.0057 37.868 59.9796 37.7373 59.9288 37.6154C59.8781 37.4936 59.8037 37.383 59.7099 37.29L54.7099 32.29C54.6148 32.199 54.5027 32.1276 54.3799 32.08C54.1365 31.98 53.8634 31.98 53.6199 32.08Z" fill="#1A1D3C"/>
<defs>
<filter id="filter0_d_9_155" x="0" y="0" width="108" height="108" filterUnits="userSpaceOnUse" color-interpolation-filters="sRGB">
<feFlood flood-opacity="0" result="BackgroundImageFix"/>
<feColorMatrix in="SourceAlpha" type="matrix" values="0 0 0 0 0 0 0 0 0 0 0 0 0 0 0 0 0 0 127 0" result="hardAlpha"/>
<feOffset dy="16"/>
<feGaussianBlur stdDeviation="12"/>
<feColorMatrix type="matrix" values="0 0 0 0 0 0 0 0 0 0 0 0 0 0 0 0 0 0 0.1 0"/>
<feBlend mode="normal" in2="BackgroundImageFix" result="effect1_dropShadow_9_155"/>
<feBlend mode="normal" in="SourceGraphic" in2="effect1_dropShadow_9_155" result="shape"/>
</filter>
</defs>
</svg>
