<svg width="30" height="30" viewBox="0 0 30 30" fill="none" xmlns="http://www.w3.org/2000/svg">
<circle opacity="0.7" cx="15" cy="15" r="15" transform="rotate(-90 15 15)" fill="white"/>
<path d="M14.8101 12.04C14.7487 12.0638 14.6926 12.0995 14.6451 12.145L12.1451 14.645C12.0985 14.6916 12.0615 14.747 12.0363 14.8079C12.011 14.8688 11.998 14.9341 11.998 15C11.998 15.1332 12.0509 15.2608 12.1451 15.355C12.1917 15.4016 12.2471 15.4386 12.308 15.4638C12.3689 15.4891 12.4342 15.502 12.5001 15.502C12.6332 15.502 12.7609 15.4492 12.8551 15.355L14.5001 13.705V17.5C14.5001 17.6326 14.5528 17.7598 14.6465 17.8536C14.7403 17.9473 14.8675 18 15.0001 18C15.1327 18 15.2599 17.9473 15.3536 17.8536C15.4474 17.7598 15.5001 17.6326 15.5001 17.5V13.705L17.1451 15.355C17.1916 15.4019 17.2469 15.4391 17.3078 15.4644C17.3687 15.4898 17.4341 15.5029 17.5001 15.5029C17.5661 15.5029 17.6315 15.4898 17.6924 15.4644C17.7533 15.4391 17.8086 15.4019 17.8551 15.355C17.902 15.3085 17.9392 15.2532 17.9645 15.1923C17.9899 15.1314 18.003 15.066 18.003 15C18.003 14.934 17.9899 14.8686 17.9645 14.8077C17.9392 14.7468 17.902 14.6915 17.8551 14.645L15.3551 12.145C15.3075 12.0995 15.2515 12.0638 15.1901 12.04C15.0684 11.99 14.9318 11.99 14.8101 12.04Z" fill="#1A1D3C"/>
</svg>
