<svg width="24" height="24" viewBox="0 0 24 24" fill="none" xmlns="http://www.w3.org/2000/svg">
<path d="M16.541 16.6052C15.7535 16.5864 14.9848 16.5864 14.1973 16.6052C14.0285 16.6052 13.991 16.5677 13.991 16.3989C13.991 15.0114 13.991 13.6052 13.991 12.2177C13.991 11.8989 13.9723 11.5802 13.8785 11.2802C13.5973 10.3052 12.4723 9.94892 11.666 10.6052C11.2348 10.9427 11.066 11.4114 11.066 11.9739C11.066 13.2864 11.066 14.5989 11.066 15.9114C11.066 16.0802 11.0473 16.2489 11.066 16.4364C11.0848 16.5864 11.0098 16.6239 10.8785 16.6052C10.0723 16.6052 9.28477 16.6052 8.47852 16.6052C8.32852 16.6052 8.29102 16.5677 8.29102 16.4177C8.30977 15.2364 8.30977 14.0552 8.30977 12.8552C8.30977 11.3927 8.30977 9.93017 8.29102 8.48642C8.29102 8.31767 8.32852 8.28017 8.47852 8.28017C9.28477 8.28017 10.0723 8.28017 10.8785 8.28017C11.0285 8.28017 11.066 8.31767 11.066 8.46767C11.066 8.76767 11.066 9.06767 11.066 9.42392C11.1223 9.36767 11.141 9.34892 11.1598 9.33017C11.891 8.26142 12.9223 7.96142 14.141 8.14892C15.5473 8.37392 16.4473 9.34892 16.6723 10.8489C16.7285 11.2052 16.7473 11.5614 16.7473 11.9177C16.7473 13.4177 16.7473 14.8989 16.7473 16.3989C16.7473 16.5489 16.7098 16.6052 16.541 16.6052Z" fill="#151515"/>
<path d="M6.79116 12.4428C6.79116 13.7553 6.79116 15.0678 6.79116 16.3803C6.79116 16.549 6.75366 16.6053 6.58491 16.6053C5.79741 16.5865 5.00991 16.6053 4.22241 16.6053C4.07241 16.6053 4.03491 16.5678 4.03491 16.4178C4.03491 13.774 4.03491 11.1115 4.03491 8.46777C4.03491 8.33652 4.07241 8.28027 4.22241 8.28027C5.02866 8.28027 5.83491 8.28027 6.64116 8.28027C6.80991 8.28027 6.82866 8.33652 6.82866 8.48652C6.79116 9.79902 6.79116 11.1115 6.79116 12.4428Z" fill="#151515"/>
<path d="M6.92238 6.10514C6.73488 6.85514 5.96613 7.28639 5.08488 7.13639C4.14738 6.98639 3.62238 6.06764 3.95988 5.16764C4.18488 4.60514 4.72863 4.26764 5.42238 4.28639C6.47238 4.26764 7.16613 5.11139 6.92238 6.10514Z" fill="#151515"/>
</svg>
