<svg width="584" height="258" viewBox="0 0 584 258" fill="none" xmlns="http://www.w3.org/2000/svg">
<path d="M-0.000184239 191.175L52.6631 114L127.427 165.018L74.7633 242.193L-0.000184239 191.175Z" fill="#6B6CEE"/>
<path d="M16.2291 188.111L55.7266 130.23L111.196 168.081L71.6988 225.963L16.2291 188.111Z" fill="#F1E0D8" fill-opacity="0.25"/>
<path d="M207.5 16C163.182 49.1231 138.318 48.1558 94 16C122.67 54.0741 120.837 75.4253 94 113.5C139.309 81.6152 164.162 82.0357 207.5 113.5C180.81 81.1228 178.987 60.1698 207.5 16Z" fill="#02E8F9" fill-opacity="0.3"/>
<path d="M498.309 182.739C513.123 196.435 537.359 234.221 538.953 231.446L523.867 120.155L433 185.022L498.309 182.739Z" fill="#407BFF"/>
<circle cx="288" cy="203" r="55" fill="#0E201A" fill-opacity="0.84"/>
<path d="M440.561 113.5C407.414 69.2 408.368 44.3351 440.5 0C402.441 28.6909 381.089 26.8688 343 0.0523751C374.909 45.3444 374.502 70.1978 343.061 113.552C375.424 86.845 396.376 85.0104 440.561 113.5Z" fill="#0F0233"/>
</svg>
