<svg width="572" height="266" viewBox="0 0 572 266" fill="none" xmlns="http://www.w3.org/2000/svg">
<path d="M516.5 91.5C496.833 87 457 66.3 457 69.5L525.5 158.5L572 57L516.5 91.5Z" fill="#0CA34D"/>
<path d="M202.5 0C158.182 33.1231 133.318 32.1558 89 0C117.67 38.0741 115.837 59.4253 89 97.5C134.309 65.6152 159.162 66.0357 202.5 97.5C175.81 65.1228 173.987 44.1698 202.5 0Z" fill="#407BFF"/>
<path d="M394.531 136.474C361.384 92.1736 362.338 67.3087 394.47 22.9736C356.411 51.6646 335.059 49.8424 296.97 23.026C328.879 68.318 328.472 93.1715 297.031 136.526C329.394 109.819 350.346 107.984 394.531 136.474Z" fill="#ED0006"/>
<path d="M496.5 168C452.182 201.123 427.318 200.156 383 168C411.67 206.074 409.837 227.425 383 265.5C428.309 233.615 453.162 234.036 496.5 265.5C469.81 233.123 467.987 212.17 496.5 168Z" fill="#F29D05"/>
<circle cx="246" cy="199" r="55" fill="#AFF4C6"/>
<path d="M-0.000184239 203.175L52.6631 126L127.427 177.018L74.7633 254.193L-0.000184239 203.175Z" fill="#BD3827" fill-opacity="0.8"/>
<path d="M16.2291 200.111L55.7266 142.23L111.196 180.082L71.6988 237.963L16.2291 200.111Z" fill="#F1E0D8" fill-opacity="0.25"/>
</svg>
