<svg width="633" height="290" viewBox="0 0 633 290" fill="none" xmlns="http://www.w3.org/2000/svg">
<path d="M-0.000184239 208.175L52.6631 131L127.427 182.018L74.7633 259.193L-0.000184239 208.175Z" fill="black"/>
<path d="M16.2291 205.111L55.7266 147.229L111.196 185.081L71.6988 242.963L16.2291 205.111Z" fill="#0E3522"/>
<path d="M240.5 30C196.182 63.1231 171.318 62.1558 127 30C155.67 68.0741 153.837 89.4253 127 127.5C172.309 95.6152 197.162 96.0357 240.5 127.5C213.81 95.1228 211.987 74.1698 240.5 30Z" fill="#02E8F9" fill-opacity="0.3"/>
<path d="M479.309 229.739C494.123 243.435 518.359 281.221 519.953 278.446L504.867 167.155L414 232.022L479.309 229.739Z" fill="#0E3522"/>
<path d="M609.728 61.2754L577.653 150.172C579.544 156.224 524.099 117.082 496.14 96.7551L536.066 17.03L609.728 61.2754Z" fill="#010002"/>
<circle cx="275" cy="231" r="55" fill="#0E201A" fill-opacity="0.84"/>
<path d="M427.561 141.5C394.414 97.2 395.368 72.3351 427.5 28C389.441 56.6909 368.089 54.8688 330 28.0524C361.909 73.3444 361.502 98.1978 330.061 141.552C362.424 114.845 383.376 113.01 427.561 141.5Z" fill="#0F0233"/>
</svg>
