<svg width="596" height="308" viewBox="0 0 596 308" fill="none" xmlns="http://www.w3.org/2000/svg">
<path d="M461.981 233.786L491.099 143.878C489.009 137.892 545.718 175.179 574.334 194.57L537.066 275.572L461.981 233.786Z" fill="#010002"/>
<path d="M285.101 281.438L187.552 205.384L310.32 160.343L285.101 281.438Z" fill="#010002"/>
<path d="M428.052 122.621L442.966 183.959L386.062 139.397L324.339 138.172L369.755 98.5814L379.525 25.163L411.745 81.8059L473.848 78.4412L428.052 122.621Z" fill="#0E3522"/>
<circle cx="113.789" cy="74.7881" r="55" transform="rotate(178.105 113.789 74.7881)" fill="#0E201A" fill-opacity="0.84"/>
<path d="M0.247301 157.007C34.8408 200.187 34.7096 225.07 4.06104 270.443C41.1503 240.51 62.551 241.625 101.506 267.167C68.1168 222.955 67.7019 198.102 97.6922 153.731C66.2301 181.494 45.3503 184.02 0.247301 157.007Z" fill="#0F0233"/>
</svg>
