<svg width="631" height="199" viewBox="0 0 631 199" fill="none" xmlns="http://www.w3.org/2000/svg">
<path d="M630.492 62.5173L580.409 141.392L504 92.874L554.082 13.9996L630.492 62.5173Z" fill="black"/>
<path d="M614.373 66.1157L576.811 125.271L520.12 89.2745L557.682 30.1188L614.373 66.1157Z" fill="#0E3522"/>
<path d="M421.806 198.75C447.64 149.823 470.518 140.035 524.343 150.082C482.116 127.979 474.617 107.904 482.536 62.0002C455.275 110.233 432.642 120.51 379.999 110.668C417.994 128.473 428.626 146.62 421.806 198.75Z" fill="#0E3522"/>
<path d="M83.9738 73.3761C68.7148 60.178 43.2427 23.2137 41.7419 26.0399L60.499 136.771L149.172 68.9359L83.9738 73.3761Z" fill="#0E3522"/>
<circle cx="348.789" cy="56.7881" r="55" transform="rotate(178.105 348.789 56.7881)" fill="#0E201A" fill-opacity="0.84"/>
<path d="M186 71.276C220.594 114.456 220.462 139.339 189.814 184.712C226.903 154.778 248.304 155.893 287.259 181.436C253.87 137.224 253.455 112.37 283.445 67.9999C251.983 95.7627 231.103 98.289 186 71.276Z" fill="#0F0233"/>
</svg>
