<svg width="510" height="140" viewBox="0 0 510 140" fill="none" xmlns="http://www.w3.org/2000/svg">
<path d="M-0.000184239 77.1752L52.6631 0L127.427 51.0175L74.7633 128.193L-0.000184239 77.1752Z" fill="black"/>
<path d="M16.2291 74.1109L55.7266 16.2295L111.196 54.0812L71.6988 111.963L16.2291 74.1109Z" fill="#0E3522"/>
<path d="M316.5 33C272.182 66.1231 247.318 65.1558 203 33C231.67 71.0741 229.837 92.4253 203 130.5C248.309 98.6152 273.162 99.0357 316.5 130.5C289.81 98.1228 287.987 77.1698 316.5 33Z" fill="#0E3522"/>
<path d="M454.5 72.5C434.833 68 395 47.3 395 50.5L463.5 139.5L510 38L454.5 72.5Z" fill="#0E3522"/>
</svg>
