<svg width="100" height="100" viewBox="0 0 100 100" fill="none" xmlns="http://www.w3.org/2000/svg">
<circle cx="50" cy="50" r="50" fill="white"/>
<path d="M62.2934 50.6933L44.6284 62.47C44.5029 62.5535 44.3571 62.6014 44.2065 62.6086C44.056 62.6158 43.9063 62.5821 43.7734 62.5109C43.6405 62.4398 43.5294 62.3339 43.4519 62.2046C43.3744 62.0753 43.3335 61.9274 43.3334 61.7767V38.2233C43.3335 38.0726 43.3744 37.9247 43.4519 37.7954C43.5294 37.6661 43.6405 37.5603 43.7734 37.4891C43.9063 37.418 44.056 37.3842 44.2065 37.3914C44.3571 37.3986 44.5029 37.4465 44.6284 37.53L62.2934 49.3067C62.4075 49.3828 62.5011 49.4859 62.5658 49.6068C62.6305 49.7278 62.6644 49.8628 62.6644 50C62.6644 50.1372 62.6305 50.2722 62.5658 50.3932C62.5011 50.5141 62.4075 50.6172 62.2934 50.6933Z" fill="black"/>
</svg>
