<svg width="25" height="24" viewBox="0 0 25 24" fill="none" xmlns="http://www.w3.org/2000/svg">
<g clip-path="url(#clip0_228_13549)">
<path d="M5.53604 17.3212C4.5088 16.2272 3.95728 15.0002 3.95728 13.0112C3.95728 9.51124 6.40771 6.37424 9.97115 4.82324L10.8618 6.20124C7.53568 8.00524 6.88543 10.3462 6.62612 11.8222C7.16168 11.5442 7.8628 11.4472 8.54996 11.5112C10.3491 11.6782 11.7673 13.1592 11.7673 15.0002C11.7673 15.9285 11.3996 16.8187 10.745 17.4751C10.0903 18.1315 9.20247 18.5002 8.27669 18.5002C7.20656 18.5002 6.18331 18.0102 5.53604 17.3212ZM15.5093 17.3212C14.4821 16.2272 13.9305 15.0002 13.9305 13.0112C13.9305 9.51124 16.381 6.37424 19.9444 4.82324L20.835 6.20124C17.5089 8.00524 16.8587 10.3462 16.5994 11.8222C17.1349 11.5442 17.8361 11.4472 18.5232 11.5112C20.3224 11.6782 21.7406 13.1592 21.7406 15.0002C21.7406 15.9285 21.3728 16.8187 20.7182 17.4751C20.0636 18.1315 19.1757 18.5002 18.25 18.5002C17.1798 18.5002 16.1566 18.0102 15.5093 17.3212Z" fill="white"/>
</g>
<defs>
<clipPath id="clip0_228_13549">
<rect width="23.9358" height="24" fill="white" transform="translate(0.965332)"/>
</clipPath>
</defs>
</svg>
