<svg width="24" height="24" viewBox="0 0 24 24" fill="none" xmlns="http://www.w3.org/2000/svg">
<path d="M15.8813 7.19189C15.8813 7.32314 15.8813 7.45439 15.8813 7.56689C15.8813 11.4481 12.9188 15.9294 7.51875 15.9294C5.85 15.9294 4.3125 15.4419 3 14.6169C3.225 14.6356 3.46875 14.6544 3.69375 14.6544C5.0625 14.6544 6.3375 14.1856 7.35 13.3981C6.05625 13.3794 4.96875 12.5169 4.6125 11.3544C4.8 11.3919 4.96875 11.4106 5.175 11.4106C5.4375 11.4106 5.7 11.3731 5.94375 11.2981C4.59375 11.0356 3.58125 9.85439 3.58125 8.42939C3.58125 8.41064 3.58125 8.41064 3.58125 8.39189C3.975 8.61689 4.425 8.74814 4.9125 8.76689C4.125 8.24189 3.6 7.34189 3.6 6.31064C3.6 5.76689 3.75 5.26064 3.99375 4.82939C5.4375 6.61064 7.6125 7.77314 10.05 7.90439C9.99375 7.69814 9.975 7.45439 9.975 7.22939C9.975 5.59814 11.2875 4.28564 12.9188 4.28564C13.7625 4.28564 14.5312 4.64189 15.0563 5.20439C15.7313 5.07314 16.35 4.82939 16.9313 4.49189C16.7063 5.18564 16.2375 5.74814 15.6375 6.12314C16.2375 6.04814 16.8 5.89814 17.325 5.65439C16.95 6.25439 16.4625 6.77939 15.8813 7.19189Z" fill="#151515"/>
</svg>
